<?xml version="1.0" encoding="utf-8"?>
<!-- Generator: Adobe Illustrator 16.0.4, SVG Export Plug-In . SVG Version: 6.00 Build 0)  -->
<!DOCTYPE svg PUBLIC "-//W3C//DTD SVG 1.1//EN" "http://www.w3.org/Graphics/SVG/1.1/DTD/svg11.dtd">
<svg version="1.1" id="Layer_1" xmlns="http://www.w3.org/2000/svg" xmlns:xlink="http://www.w3.org/1999/xlink" x="0px" y="0px"
	 width="36px" height="36px" viewBox="0 0 36 36" enable-background="new 0 0 36 36" xml:space="preserve">
<path fill="#2486C8" d="M17.999,0C8.075,0,0,8.076,0,17.999C0,27.925,8.075,36,17.999,36C27.924,36,36,27.925,36,17.999
	C36,8.076,27.924,0,17.999,0 M26.031,13.882c0.006,0.176,0.011,0.357,0.011,0.538c0,5.472-4.167,11.785-11.79,11.785
	c-2.34,0-4.517-0.683-6.351-1.862c0.325,0.038,0.655,0.06,0.988,0.06c1.943,0,3.728-0.662,5.147-1.773
	c-1.812-0.035-3.342-1.232-3.869-2.879c0.251,0.051,0.51,0.075,0.779,0.075c0.375,0,0.743-0.05,1.09-0.146
	c-1.894-0.379-3.325-2.052-3.325-4.06c0-0.019,0-0.036,0.004-0.054c0.556,0.312,1.197,0.496,1.876,0.517
	c-1.111-0.74-1.844-2.01-1.844-3.447c0-0.758,0.205-1.469,0.559-2.082c2.043,2.507,5.098,4.156,8.539,4.329
	c-0.071-0.305-0.106-0.619-0.106-0.945c0-2.288,1.856-4.143,4.142-4.143c1.192,0,2.27,0.504,3.023,1.307
	c0.945-0.185,1.833-0.528,2.634-1.005c-0.312,0.97-0.967,1.781-1.823,2.294c0.839-0.099,1.639-0.321,2.38-0.65
	C27.543,12.568,26.839,13.297,26.031,13.882"/>
</svg>